<?xml version="1.0" standalone="no"?>
<!DOCTYPE svg PUBLIC "-//W3C//DTD SVG 20010904//EN"
 "http://www.w3.org/TR/2001/REC-SVG-20010904/DTD/svg10.dtd">
<svg version="1.0" xmlns="http://www.w3.org/2000/svg"
 width="500.000000pt" height="499.000000pt" viewBox="0 0 500.000000 499.000000"
 preserveAspectRatio="xMidYMid meet">

<g transform="translate(0.000000,499.000000) scale(0.100000,-0.100000)"
fill="#000000" stroke="none">
<path d="M2290 4947 c-138 -43 -240 -108 -379 -242 -51 -49 -121 -126 -156
-171 -61 -79 -63 -83 -78 -180 -45 -274 -73 -692 -63 -939 23 -575 103 -970
277 -1351 26 -58 33 -178 20 -323 -27 -271 -123 -471 -285 -591 -49 -35 -116
-65 -321 -140 -498 -182 -960 -460 -1158 -695 -83 -98 -136 -213 -137 -292 l0
-23 2494 0 2494 0 -24 75 c-48 152 -139 300 -250 410 -88 86 -140 118 -346
210 -227 100 -560 269 -833 420 -22 12 -75 41 -118 65 -67 36 -85 53 -127 111
-112 161 -171 328 -172 489 -1 125 18 194 96 345 89 172 146 361 200 660 105
574 113 1209 19 1500 -33 104 -60 140 -195 269 -230 217 -378 320 -545 379
-77 27 -103 31 -213 34 -107 3 -136 0 -200 -20z"/>
</g>
</svg>
