<svg xmlns="http://www.w3.org/2000/svg" version="1.1" xmlns:xlink="http://www.w3.org/1999/xlink" xmlns:svgjs="http://svgjs.com/svgjs" width="2000" height="1000" preserveAspectRatio="none" viewBox="0 0 2000 1000"><g mask="url(&quot;#SvgjsMask1014&quot;)" fill="none"><rect width="2000" height="1000" x="0" y="0" fill="#0e2a47"></rect><path d="M69.91 963.57L232.73 1057.57L232.73 1245.57L69.91 1339.57L-92.91 1245.57L-92.91 1057.57zM395.54 -164.43L558.36 -70.43L558.36 117.57L395.54 211.57L232.73 117.57L232.73 -70.43zM395.54 399.57L558.36 493.57L558.36 681.57L395.54 775.57L232.73 681.57L232.73 493.57zM558.36 681.57L721.18 775.57L721.18 963.57L558.36 1057.57L395.54 963.57L395.54 775.57zM395.54 963.57L558.36 1057.57L558.36 1245.57L395.54 1339.57L232.73 1245.57L232.73 1057.57zM721.18 -164.43L884 -70.43L884 117.57L721.18 211.57L558.36 117.57L558.36 -70.43zM884 117.57L1046.81 211.57L1046.81 399.57L884 493.57L721.18 399.57L721.18 211.57zM1046.81 399.57L1209.63 493.57L1209.63 681.57L1046.81 775.57L884 681.57L884 493.57zM1209.63 681.57L1372.45 775.57L1372.45 963.57L1209.63 1057.57L1046.81 963.57L1046.81 775.57zM1046.81 963.57L1209.63 1057.57L1209.63 1245.57L1046.81 1339.57L884 1245.57L884 1057.57zM1535.27 117.57L1698.08 211.57L1698.08 399.57L1535.27 493.57L1372.45 399.57L1372.45 211.57zM1372.45 399.57L1535.27 493.57L1535.27 681.57L1372.45 775.57L1209.63 681.57L1209.63 493.57zM1535.27 681.57L1698.08 775.57L1698.08 963.57L1535.27 1057.57L1372.45 963.57L1372.45 775.57zM1698.08 963.57L1860.9 1057.57L1860.9 1245.57L1698.08 1339.57L1535.27 1245.57L1535.27 1057.57zM2023.72 -164.43L2186.54 -70.43L2186.54 117.57L2023.72 211.57L1860.9 117.57L1860.9 -70.43zM2023.72 399.57L2186.54 493.57L2186.54 681.57L2023.72 775.57L1860.9 681.57L1860.9 493.57z" stroke="rgba(0, 0, 0, 0)" stroke-width="2"></path><path d="M51.11 963.57 a18.8 18.8 0 1 0 37.6 0 a18.8 18.8 0 1 0 -37.6 0zM213.93 1057.57 a18.8 18.8 0 1 0 37.6 0 a18.8 18.8 0 1 0 -37.6 0zM213.93 1245.57 a18.8 18.8 0 1 0 37.6 0 a18.8 18.8 0 1 0 -37.6 0zM51.11 1339.57 a18.8 18.8 0 1 0 37.6 0 a18.8 18.8 0 1 0 -37.6 0zM-111.71 1245.57 a18.8 18.8 0 1 0 37.6 0 a18.8 18.8 0 1 0 -37.6 0zM-111.71 1057.57 a18.8 18.8 0 1 0 37.6 0 a18.8 18.8 0 1 0 -37.6 0zM376.74 -164.43 a18.8 18.8 0 1 0 37.6 0 a18.8 18.8 0 1 0 -37.6 0zM539.56 -70.43 a18.8 18.8 0 1 0 37.6 0 a18.8 18.8 0 1 0 -37.6 0zM539.56 117.57 a18.8 18.8 0 1 0 37.6 0 a18.8 18.8 0 1 0 -37.6 0zM376.74 211.57 a18.8 18.8 0 1 0 37.6 0 a18.8 18.8 0 1 0 -37.6 0zM213.93 117.57 a18.8 18.8 0 1 0 37.6 0 a18.8 18.8 0 1 0 -37.6 0zM213.93 -70.43 a18.8 18.8 0 1 0 37.6 0 a18.8 18.8 0 1 0 -37.6 0zM376.74 399.57 a18.8 18.8 0 1 0 37.6 0 a18.8 18.8 0 1 0 -37.6 0zM539.56 493.57 a18.8 18.8 0 1 0 37.6 0 a18.8 18.8 0 1 0 -37.6 0zM539.56 681.57 a18.8 18.8 0 1 0 37.6 0 a18.8 18.8 0 1 0 -37.6 0zM376.74 775.57 a18.8 18.8 0 1 0 37.6 0 a18.8 18.8 0 1 0 -37.6 0zM213.93 681.57 a18.8 18.8 0 1 0 37.6 0 a18.8 18.8 0 1 0 -37.6 0zM213.93 493.57 a18.8 18.8 0 1 0 37.6 0 a18.8 18.8 0 1 0 -37.6 0zM702.38 775.57 a18.8 18.8 0 1 0 37.6 0 a18.8 18.8 0 1 0 -37.6 0zM702.38 963.57 a18.8 18.8 0 1 0 37.6 0 a18.8 18.8 0 1 0 -37.6 0zM539.56 1057.57 a18.8 18.8 0 1 0 37.6 0 a18.8 18.8 0 1 0 -37.6 0zM376.74 963.57 a18.8 18.8 0 1 0 37.6 0 a18.8 18.8 0 1 0 -37.6 0zM539.56 1245.57 a18.8 18.8 0 1 0 37.6 0 a18.8 18.8 0 1 0 -37.6 0zM376.74 1339.57 a18.8 18.8 0 1 0 37.6 0 a18.8 18.8 0 1 0 -37.6 0zM702.38 -164.43 a18.8 18.8 0 1 0 37.6 0 a18.8 18.8 0 1 0 -37.6 0zM865.2 -70.43 a18.8 18.8 0 1 0 37.6 0 a18.8 18.8 0 1 0 -37.6 0zM865.2 117.57 a18.8 18.8 0 1 0 37.6 0 a18.8 18.8 0 1 0 -37.6 0zM702.38 211.57 a18.8 18.8 0 1 0 37.6 0 a18.8 18.8 0 1 0 -37.6 0zM1028.01 211.57 a18.8 18.8 0 1 0 37.6 0 a18.8 18.8 0 1 0 -37.6 0zM1028.01 399.57 a18.8 18.8 0 1 0 37.6 0 a18.8 18.8 0 1 0 -37.6 0zM865.2 493.57 a18.8 18.8 0 1 0 37.6 0 a18.8 18.8 0 1 0 -37.6 0zM702.38 399.57 a18.8 18.8 0 1 0 37.6 0 a18.8 18.8 0 1 0 -37.6 0zM1190.83 493.57 a18.8 18.8 0 1 0 37.6 0 a18.8 18.8 0 1 0 -37.6 0zM1190.83 681.57 a18.8 18.8 0 1 0 37.6 0 a18.8 18.8 0 1 0 -37.6 0zM1028.01 775.57 a18.8 18.8 0 1 0 37.6 0 a18.8 18.8 0 1 0 -37.6 0zM865.2 681.57 a18.8 18.8 0 1 0 37.6 0 a18.8 18.8 0 1 0 -37.6 0zM1353.65 775.57 a18.8 18.8 0 1 0 37.6 0 a18.8 18.8 0 1 0 -37.6 0zM1353.65 963.57 a18.8 18.8 0 1 0 37.6 0 a18.8 18.8 0 1 0 -37.6 0zM1190.83 1057.57 a18.8 18.8 0 1 0 37.6 0 a18.8 18.8 0 1 0 -37.6 0zM1028.01 963.57 a18.8 18.8 0 1 0 37.6 0 a18.8 18.8 0 1 0 -37.6 0zM1190.83 1245.57 a18.8 18.8 0 1 0 37.6 0 a18.8 18.8 0 1 0 -37.6 0zM1028.01 1339.57 a18.8 18.8 0 1 0 37.6 0 a18.8 18.8 0 1 0 -37.6 0zM865.2 1245.57 a18.8 18.8 0 1 0 37.6 0 a18.8 18.8 0 1 0 -37.6 0zM865.2 1057.57 a18.8 18.8 0 1 0 37.6 0 a18.8 18.8 0 1 0 -37.6 0zM1516.47 117.57 a18.8 18.8 0 1 0 37.6 0 a18.8 18.8 0 1 0 -37.6 0zM1679.28 211.57 a18.8 18.8 0 1 0 37.6 0 a18.8 18.8 0 1 0 -37.6 0zM1679.28 399.57 a18.8 18.8 0 1 0 37.6 0 a18.8 18.8 0 1 0 -37.6 0zM1516.47 493.57 a18.8 18.8 0 1 0 37.6 0 a18.8 18.8 0 1 0 -37.6 0zM1353.65 399.57 a18.8 18.8 0 1 0 37.6 0 a18.8 18.8 0 1 0 -37.6 0zM1353.65 211.57 a18.8 18.8 0 1 0 37.6 0 a18.8 18.8 0 1 0 -37.6 0zM1516.47 681.57 a18.8 18.8 0 1 0 37.6 0 a18.8 18.8 0 1 0 -37.6 0zM1679.28 775.57 a18.8 18.8 0 1 0 37.6 0 a18.8 18.8 0 1 0 -37.6 0zM1679.28 963.57 a18.8 18.8 0 1 0 37.6 0 a18.8 18.8 0 1 0 -37.6 0zM1516.47 1057.57 a18.8 18.8 0 1 0 37.6 0 a18.8 18.8 0 1 0 -37.6 0zM1842.1 1057.57 a18.8 18.8 0 1 0 37.6 0 a18.8 18.8 0 1 0 -37.6 0zM1842.1 1245.57 a18.8 18.8 0 1 0 37.6 0 a18.8 18.8 0 1 0 -37.6 0zM1679.28 1339.57 a18.8 18.8 0 1 0 37.6 0 a18.8 18.8 0 1 0 -37.6 0zM1516.47 1245.57 a18.8 18.8 0 1 0 37.6 0 a18.8 18.8 0 1 0 -37.6 0zM2004.92 -164.43 a18.8 18.8 0 1 0 37.6 0 a18.8 18.8 0 1 0 -37.6 0zM2167.74 -70.43 a18.8 18.8 0 1 0 37.6 0 a18.8 18.8 0 1 0 -37.6 0zM2167.74 117.57 a18.8 18.8 0 1 0 37.6 0 a18.8 18.8 0 1 0 -37.6 0zM2004.92 211.57 a18.8 18.8 0 1 0 37.6 0 a18.8 18.8 0 1 0 -37.6 0zM1842.1 117.57 a18.8 18.8 0 1 0 37.6 0 a18.8 18.8 0 1 0 -37.6 0zM1842.1 -70.43 a18.8 18.8 0 1 0 37.6 0 a18.8 18.8 0 1 0 -37.6 0zM2004.92 399.57 a18.8 18.8 0 1 0 37.6 0 a18.8 18.8 0 1 0 -37.6 0zM2167.74 493.57 a18.8 18.8 0 1 0 37.6 0 a18.8 18.8 0 1 0 -37.6 0zM2167.74 681.57 a18.8 18.8 0 1 0 37.6 0 a18.8 18.8 0 1 0 -37.6 0zM2004.92 775.57 a18.8 18.8 0 1 0 37.6 0 a18.8 18.8 0 1 0 -37.6 0zM1842.1 681.57 a18.8 18.8 0 1 0 37.6 0 a18.8 18.8 0 1 0 -37.6 0zM1842.1 493.57 a18.8 18.8 0 1 0 37.6 0 a18.8 18.8 0 1 0 -37.6 0z" fill="rgba(0, 0, 0, 0)"></path><path d="M6.68 -17.61L40.46 1.89L40.46 40.89L6.68 60.39L-27.1 40.89L-27.1 1.89zM6.68 99.39L40.46 118.89L40.46 157.89L6.68 177.39L-27.1 157.89L-27.1 118.89zM40.46 157.89L74.23 177.39L74.23 216.39L40.46 235.89L6.68 216.39L6.68 177.39zM40.46 391.89L74.23 411.39L74.23 450.39L40.46 469.89L6.68 450.39L6.68 411.39zM6.68 684.39L40.46 703.89L40.46 742.89L6.68 762.39L-27.1 742.89L-27.1 703.89zM108.01 40.89L141.78 60.39L141.78 99.39L108.01 118.89L74.23 99.39L74.23 60.39zM108.01 391.89L141.78 411.39L141.78 450.39L108.01 469.89L74.23 450.39L74.23 411.39zM141.78 450.39L175.56 469.89L175.56 508.89L141.78 528.39L108.01 508.89L108.01 469.89zM175.56 625.89L209.34 645.39L209.34 684.39L175.56 703.89L141.78 684.39L141.78 645.39zM141.78 684.39L175.56 703.89L175.56 742.89L141.78 762.39L108.01 742.89L108.01 703.89zM141.78 801.39L175.56 820.89L175.56 859.89L141.78 879.39L108.01 859.89L108.01 820.89zM209.34 -17.61L243.11 1.89L243.11 40.89L209.34 60.39L175.56 40.89L175.56 1.89zM243.11 40.89L276.89 60.39L276.89 99.39L243.11 118.89L209.34 99.39L209.34 60.39zM243.11 157.89L276.89 177.39L276.89 216.39L243.11 235.89L209.34 216.39L209.34 177.39zM209.34 216.39L243.11 235.89L243.11 274.89L209.34 294.39L175.56 274.89L175.56 235.89zM209.34 333.39L243.11 352.89L243.11 391.89L209.34 411.39L175.56 391.89L175.56 352.89zM243.11 508.89L276.89 528.39L276.89 567.39L243.11 586.89L209.34 567.39L209.34 528.39zM209.34 801.39L243.11 820.89L243.11 859.89L209.34 879.39L175.56 859.89L175.56 820.89zM243.11 859.89L276.89 879.39L276.89 918.39L243.11 937.89L209.34 918.39L209.34 879.39zM209.34 918.39L243.11 937.89L243.11 976.89L209.34 996.39L175.56 976.89L175.56 937.89zM310.66 40.89L344.44 60.39L344.44 99.39L310.66 118.89L276.89 99.39L276.89 60.39zM276.89 450.39L310.66 469.89L310.66 508.89L276.89 528.39L243.11 508.89L243.11 469.89zM310.66 508.89L344.44 528.39L344.44 567.39L310.66 586.89L276.89 567.39L276.89 528.39zM276.89 567.39L310.66 586.89L310.66 625.89L276.89 645.39L243.11 625.89L243.11 586.89zM310.66 625.89L344.44 645.39L344.44 684.39L310.66 703.89L276.89 684.39L276.89 645.39zM378.22 40.89L411.99 60.39L411.99 99.39L378.22 118.89L344.44 99.39L344.44 60.39zM344.44 99.39L378.22 118.89L378.22 157.89L344.44 177.39L310.66 157.89L310.66 118.89zM344.44 216.39L378.22 235.89L378.22 274.89L344.44 294.39L310.66 274.89L310.66 235.89zM344.44 567.39L378.22 586.89L378.22 625.89L344.44 645.39L310.66 625.89L310.66 586.89zM344.44 684.39L378.22 703.89L378.22 742.89L344.44 762.39L310.66 742.89L310.66 703.89zM344.44 801.39L378.22 820.89L378.22 859.89L344.44 879.39L310.66 859.89L310.66 820.89zM344.44 918.39L378.22 937.89L378.22 976.89L344.44 996.39L310.66 976.89L310.66 937.89zM445.77 40.89L479.54 60.39L479.54 99.39L445.77 118.89L411.99 99.39L411.99 60.39zM411.99 333.39L445.77 352.89L445.77 391.89L411.99 411.39L378.22 391.89L378.22 352.89zM445.77 391.89L479.54 411.39L479.54 450.39L445.77 469.89L411.99 450.39L411.99 411.39zM411.99 801.39L445.77 820.89L445.77 859.89L411.99 879.39L378.22 859.89L378.22 820.89zM411.99 918.39L445.77 937.89L445.77 976.89L411.99 996.39L378.22 976.89L378.22 937.89zM513.32 274.89L547.1 294.39L547.1 333.39L513.32 352.89L479.54 333.39L479.54 294.39zM479.54 450.39L513.32 469.89L513.32 508.89L479.54 528.39L445.77 508.89L445.77 469.89zM547.1 99.39L580.87 118.89L580.87 157.89L547.1 177.39L513.32 157.89L513.32 118.89zM580.87 157.89L614.65 177.39L614.65 216.39L580.87 235.89L547.1 216.39L547.1 177.39zM580.87 508.89L614.65 528.39L614.65 567.39L580.87 586.89L547.1 567.39L547.1 528.39zM547.1 801.39L580.87 820.89L580.87 859.89L547.1 879.39L513.32 859.89L513.32 820.89zM580.87 859.89L614.65 879.39L614.65 918.39L580.87 937.89L547.1 918.39L547.1 879.39zM648.42 274.89L682.2 294.39L682.2 333.39L648.42 352.89L614.65 333.39L614.65 294.39zM648.42 742.89L682.2 762.39L682.2 801.39L648.42 820.89L614.65 801.39L614.65 762.39zM715.97 40.89L749.75 60.39L749.75 99.39L715.97 118.89L682.2 99.39L682.2 60.39zM682.2 333.39L715.97 352.89L715.97 391.89L682.2 411.39L648.42 391.89L648.42 352.89zM682.2 918.39L715.97 937.89L715.97 976.89L682.2 996.39L648.42 976.89L648.42 937.89zM783.53 40.89L817.3 60.39L817.3 99.39L783.53 118.89L749.75 99.39L749.75 60.39zM749.75 99.39L783.53 118.89L783.53 157.89L749.75 177.39L715.97 157.89L715.97 118.89zM783.53 274.89L817.3 294.39L817.3 333.39L783.53 352.89L749.75 333.39L749.75 294.39zM783.53 391.89L817.3 411.39L817.3 450.39L783.53 469.89L749.75 450.39L749.75 411.39zM817.3 -17.61L851.08 1.89L851.08 40.89L817.3 60.39L783.53 40.89L783.53 1.89zM817.3 99.39L851.08 118.89L851.08 157.89L817.3 177.39L783.53 157.89L783.53 118.89zM817.3 216.39L851.08 235.89L851.08 274.89L817.3 294.39L783.53 274.89L783.53 235.89zM817.3 567.39L851.08 586.89L851.08 625.89L817.3 645.39L783.53 625.89L783.53 586.89zM817.3 801.39L851.08 820.89L851.08 859.89L817.3 879.39L783.53 859.89L783.53 820.89zM851.08 976.89L884.85 996.39L884.85 1035.39L851.08 1054.89L817.3 1035.39L817.3 996.39zM884.85 333.39L918.63 352.89L918.63 391.89L884.85 411.39L851.08 391.89L851.08 352.89zM918.63 508.89L952.41 528.39L952.41 567.39L918.63 586.89L884.85 567.39L884.85 528.39zM952.41 99.39L986.18 118.89L986.18 157.89L952.41 177.39L918.63 157.89L918.63 118.89zM952.41 450.39L986.18 469.89L986.18 508.89L952.41 528.39L918.63 508.89L918.63 469.89zM986.18 625.89L1019.96 645.39L1019.96 684.39L986.18 703.89L952.41 684.39L952.41 645.39zM952.41 801.39L986.18 820.89L986.18 859.89L952.41 879.39L918.63 859.89L918.63 820.89zM1019.96 216.39L1053.73 235.89L1053.73 274.89L1019.96 294.39L986.18 274.89L986.18 235.89zM1019.96 801.39L1053.73 820.89L1053.73 859.89L1019.96 879.39L986.18 859.89L986.18 820.89zM1019.96 918.39L1053.73 937.89L1053.73 976.89L1019.96 996.39L986.18 976.89L986.18 937.89zM1053.73 976.89L1087.51 996.39L1087.51 1035.39L1053.73 1054.89L1019.96 1035.39L1019.96 996.39zM1087.51 216.39L1121.29 235.89L1121.29 274.89L1087.51 294.39L1053.73 274.89L1053.73 235.89zM1121.29 508.89L1155.06 528.39L1155.06 567.39L1121.29 586.89L1087.51 567.39L1087.51 528.39zM1087.51 684.39L1121.29 703.89L1121.29 742.89L1087.51 762.39L1053.73 742.89L1053.73 703.89zM1121.29 859.89L1155.06 879.39L1155.06 918.39L1121.29 937.89L1087.51 918.39L1087.51 879.39zM1188.84 391.89L1222.61 411.39L1222.61 450.39L1188.84 469.89L1155.06 450.39L1155.06 411.39zM1222.61 99.39L1256.39 118.89L1256.39 157.89L1222.61 177.39L1188.84 157.89L1188.84 118.89zM1222.61 216.39L1256.39 235.89L1256.39 274.89L1222.61 294.39L1188.84 274.89L1188.84 235.89zM1222.61 333.39L1256.39 352.89L1256.39 391.89L1222.61 411.39L1188.84 391.89L1188.84 352.89zM1256.39 859.89L1290.17 879.39L1290.17 918.39L1256.39 937.89L1222.61 918.39L1222.61 879.39zM1256.39 976.89L1290.17 996.39L1290.17 1035.39L1256.39 1054.89L1222.61 1035.39L1222.61 996.39zM1323.94 40.89L1357.72 60.39L1357.72 99.39L1323.94 118.89L1290.17 99.39L1290.17 60.39zM1290.17 99.39L1323.94 118.89L1323.94 157.89L1290.17 177.39L1256.39 157.89L1256.39 118.89zM1290.17 216.39L1323.94 235.89L1323.94 274.89L1290.17 294.39L1256.39 274.89L1256.39 235.89zM1323.94 274.89L1357.72 294.39L1357.72 333.39L1323.94 352.89L1290.17 333.39L1290.17 294.39zM1290.17 567.39L1323.94 586.89L1323.94 625.89L1290.17 645.39L1256.39 625.89L1256.39 586.89zM1290.17 684.39L1323.94 703.89L1323.94 742.89L1290.17 762.39L1256.39 742.89L1256.39 703.89zM1323.94 859.89L1357.72 879.39L1357.72 918.39L1323.94 937.89L1290.17 918.39L1290.17 879.39zM1357.72 -17.61L1391.49 1.89L1391.49 40.89L1357.72 60.39L1323.94 40.89L1323.94 1.89zM1391.49 40.89L1425.27 60.39L1425.27 99.39L1391.49 118.89L1357.72 99.39L1357.72 60.39zM1357.72 567.39L1391.49 586.89L1391.49 625.89L1357.72 645.39L1323.94 625.89L1323.94 586.89zM1391.49 625.89L1425.27 645.39L1425.27 684.39L1391.49 703.89L1357.72 684.39L1357.72 645.39zM1425.27 99.39L1459.05 118.89L1459.05 157.89L1425.27 177.39L1391.49 157.89L1391.49 118.89zM1459.05 274.89L1492.82 294.39L1492.82 333.39L1459.05 352.89L1425.27 333.39L1425.27 294.39zM1425.27 333.39L1459.05 352.89L1459.05 391.89L1425.27 411.39L1391.49 391.89L1391.49 352.89zM1459.05 625.89L1492.82 645.39L1492.82 684.39L1459.05 703.89L1425.27 684.39L1425.27 645.39zM1425.27 684.39L1459.05 703.89L1459.05 742.89L1425.27 762.39L1391.49 742.89L1391.49 703.89zM1425.27 801.39L1459.05 820.89L1459.05 859.89L1425.27 879.39L1391.49 859.89L1391.49 820.89zM1459.05 859.89L1492.82 879.39L1492.82 918.39L1459.05 937.89L1425.27 918.39L1425.27 879.39zM1459.05 976.89L1492.82 996.39L1492.82 1035.39L1459.05 1054.89L1425.27 1035.39L1425.27 996.39zM1492.82 -17.61L1526.6 1.89L1526.6 40.89L1492.82 60.39L1459.05 40.89L1459.05 1.89zM1526.6 157.89L1560.37 177.39L1560.37 216.39L1526.6 235.89L1492.82 216.39L1492.82 177.39zM1492.82 216.39L1526.6 235.89L1526.6 274.89L1492.82 294.39L1459.05 274.89L1459.05 235.89zM1492.82 450.39L1526.6 469.89L1526.6 508.89L1492.82 528.39L1459.05 508.89L1459.05 469.89zM1526.6 508.89L1560.37 528.39L1560.37 567.39L1526.6 586.89L1492.82 567.39L1492.82 528.39zM1492.82 567.39L1526.6 586.89L1526.6 625.89L1492.82 645.39L1459.05 625.89L1459.05 586.89zM1526.6 742.89L1560.37 762.39L1560.37 801.39L1526.6 820.89L1492.82 801.39L1492.82 762.39zM1492.82 918.39L1526.6 937.89L1526.6 976.89L1492.82 996.39L1459.05 976.89L1459.05 937.89zM1560.37 333.39L1594.15 352.89L1594.15 391.89L1560.37 411.39L1526.6 391.89L1526.6 352.89zM1594.15 508.89L1627.93 528.39L1627.93 567.39L1594.15 586.89L1560.37 567.39L1560.37 528.39zM1560.37 567.39L1594.15 586.89L1594.15 625.89L1560.37 645.39L1526.6 625.89L1526.6 586.89zM1594.15 625.89L1627.93 645.39L1627.93 684.39L1594.15 703.89L1560.37 684.39L1560.37 645.39zM1627.93 99.39L1661.7 118.89L1661.7 157.89L1627.93 177.39L1594.15 157.89L1594.15 118.89zM1627.93 333.39L1661.7 352.89L1661.7 391.89L1627.93 411.39L1594.15 391.89L1594.15 352.89zM1627.93 567.39L1661.7 586.89L1661.7 625.89L1627.93 645.39L1594.15 625.89L1594.15 586.89zM1661.7 742.89L1695.48 762.39L1695.48 801.39L1661.7 820.89L1627.93 801.39L1627.93 762.39zM1695.48 -17.61L1729.25 1.89L1729.25 40.89L1695.48 60.39L1661.7 40.89L1661.7 1.89zM1729.25 40.89L1763.03 60.39L1763.03 99.39L1729.25 118.89L1695.48 99.39L1695.48 60.39zM1695.48 99.39L1729.25 118.89L1729.25 157.89L1695.48 177.39L1661.7 157.89L1661.7 118.89zM1695.48 450.39L1729.25 469.89L1729.25 508.89L1695.48 528.39L1661.7 508.89L1661.7 469.89zM1729.25 508.89L1763.03 528.39L1763.03 567.39L1729.25 586.89L1695.48 567.39L1695.48 528.39zM1695.48 567.39L1729.25 586.89L1729.25 625.89L1695.48 645.39L1661.7 625.89L1661.7 586.89zM1796.81 274.89L1830.58 294.39L1830.58 333.39L1796.81 352.89L1763.03 333.39L1763.03 294.39zM1796.81 859.89L1830.58 879.39L1830.58 918.39L1796.81 937.89L1763.03 918.39L1763.03 879.39zM1763.03 918.39L1796.81 937.89L1796.81 976.89L1763.03 996.39L1729.25 976.89L1729.25 937.89zM1864.36 40.89L1898.13 60.39L1898.13 99.39L1864.36 118.89L1830.58 99.39L1830.58 60.39zM1864.36 157.89L1898.13 177.39L1898.13 216.39L1864.36 235.89L1830.58 216.39L1830.58 177.39zM1830.58 216.39L1864.36 235.89L1864.36 274.89L1830.58 294.39L1796.81 274.89L1796.81 235.89zM1830.58 450.39L1864.36 469.89L1864.36 508.89L1830.58 528.39L1796.81 508.89L1796.81 469.89zM1864.36 508.89L1898.13 528.39L1898.13 567.39L1864.36 586.89L1830.58 567.39L1830.58 528.39zM1830.58 567.39L1864.36 586.89L1864.36 625.89L1830.58 645.39L1796.81 625.89L1796.81 586.89zM1830.58 801.39L1864.36 820.89L1864.36 859.89L1830.58 879.39L1796.81 859.89L1796.81 820.89zM1898.13 -17.61L1931.91 1.89L1931.91 40.89L1898.13 60.39L1864.36 40.89L1864.36 1.89zM1898.13 99.39L1931.91 118.89L1931.91 157.89L1898.13 177.39L1864.36 157.89L1864.36 118.89zM1898.13 450.39L1931.91 469.89L1931.91 508.89L1898.13 528.39L1864.36 508.89L1864.36 469.89zM1898.13 684.39L1931.91 703.89L1931.91 742.89L1898.13 762.39L1864.36 742.89L1864.36 703.89zM1898.13 918.39L1931.91 937.89L1931.91 976.89L1898.13 996.39L1864.36 976.89L1864.36 937.89zM1965.69 333.39L1999.46 352.89L1999.46 391.89L1965.69 411.39L1931.91 391.89L1931.91 352.89zM1965.69 684.39L1999.46 703.89L1999.46 742.89L1965.69 762.39L1931.91 742.89L1931.91 703.89zM1999.46 859.89L2033.24 879.39L2033.24 918.39L1999.46 937.89L1965.69 918.39L1965.69 879.39z" stroke="url(#SvgjsLinearGradient1015)" stroke-width="2"></path></g><defs><mask id="SvgjsMask1014"><rect width="2000" height="1000" fill="#ffffff"></rect></mask><linearGradient x1="250" y1="-250" x2="1750" y2="1250" gradientUnits="userSpaceOnUse" id="SvgjsLinearGradient1015"><stop stop-color="#0e2a47" offset="0"></stop><stop stop-color="rgba(149, 165, 186, 1)" offset="1"></stop></linearGradient></defs></svg>